<?xml version="1.0" encoding="UTF-8" standalone="no" ?>
<!DOCTYPE svg PUBLIC "-//W3C//DTD SVG 1.1//EN" "http://www.w3.org/Graphics/SVG/1.1/DTD/svg11.dtd">
<svg xmlns="http://www.w3.org/2000/svg" xmlns:xlink="http://www.w3.org/1999/xlink" version="1.1" width="500" height="500" viewBox="0 0 500 500" xml:space="preserve">
<desc>Created with Fabric.js 5.3.0</desc>
<defs>
</defs>
<g transform="matrix(1 0 0 1 476.5625058607 258.9108560091)" id="xSifNGWAdFQocwm0jAzj6"  >
<path style="stroke: rgb(181,104,173); stroke-width: 0; stroke-dasharray: none; stroke-linecap: butt; stroke-dashoffset: 0; stroke-linejoin: miter; stroke-miterlimit: 4; fill: rgb(181,181,181); fill-rule: nonzero; opacity: 1;"  transform=" translate(-23.1481422874, -23.1481422874)" d="M 23.14815 0 C 35.92593 0 46.2963 10.37037 46.2963 23.14815 C 46.2963 35.92593 35.92593 46.2963 23.14815 46.2963 C 10.370370000000001 46.2963 0 35.92593 0 23.14815 C 0 10.370370000000001 10.37037 0 23.14815 0 z" stroke-linecap="round" />
</g>
<g transform="matrix(1 0 0 1 221.1086067568 107.9290086648)" id="R8JEVIuulqY1g9eJGmI4T"  >
<path style="stroke: rgb(181,104,173); stroke-width: 0; stroke-dasharray: none; stroke-linecap: butt; stroke-dashoffset: 0; stroke-linejoin: miter; stroke-miterlimit: 4; fill: rgb(181,181,181); fill-rule: nonzero; opacity: 1;"  transform=" translate(-23.14815, -23.14815)" d="M 23.14815 0 C 35.92593 0 46.2963 10.37037 46.2963 23.14815 C 46.2963 35.92593 35.92593 46.2963 23.14815 46.2963 C 10.370370000000001 46.2963 0 35.92593 0 23.14815 C 0 10.370370000000001 10.37037 0 23.14815 0 z" stroke-linecap="round" />
</g>
<g transform="matrix(1 0 0 1 221.1086067568 409.2170276777)" id="u2OEEEgFVAD74OjtJGuid"  >
<path style="stroke: rgb(181,104,173); stroke-width: 0; stroke-dasharray: none; stroke-linecap: butt; stroke-dashoffset: 0; stroke-linejoin: miter; stroke-miterlimit: 4; fill: rgb(181,181,181); fill-rule: nonzero; opacity: 1;"  transform=" translate(-23.14815, -23.14815)" d="M 23.14815 0 C 35.92593 0 46.2963 10.37037 46.2963 23.14815 C 46.2963 35.92593 35.92593 46.2963 23.14815 46.2963 C 10.370370000000001 46.2963 0 35.92593 0 23.14815 C 0 10.370370000000001 10.37037 0 23.14815 0 z" stroke-linecap="round" />
</g>
<g transform="matrix(0 -0.3128325362 2.8678845538 0 263.2967921965 258.7956999216)" id="KA5hIum9aPCDzAA5BNH-0"  >
<path style="stroke: rgb(54,151,245); stroke-width: 0; stroke-dasharray: none; stroke-linecap: butt; stroke-dashoffset: 0; stroke-linejoin: miter; stroke-miterlimit: 4; fill: rgb(181,181,181); fill-rule: nonzero; opacity: 1;"  transform=" translate(0, 0)" d="M -74.36342 -74.36342 L 74.36343000000001 -74.36342 L 74.36343000000001 74.36343000000001 L -74.36342 74.36343000000001 z" stroke-linecap="round" />
</g>
<g transform="matrix(0.2605629813 0.310526869 -1.6521438318 1.3863132799 127.652410292 186.9728810944)" id="4KAQjCe35NTGAb742SsUx"  >
<path style="stroke: rgb(166,197,230); stroke-width: 0; stroke-dasharray: none; stroke-linecap: butt; stroke-dashoffset: 0; stroke-linejoin: miter; stroke-miterlimit: 4; fill: rgb(181,181,181); fill-rule: nonzero; opacity: 1;"  transform=" translate(0, 0)" d="M -57.26744 -57.26744 L 57.26744 -57.26744 L 57.26744 57.26744 L -57.26744 57.26744 z" stroke-linecap="round" />
</g>
<g transform="matrix(-0.2605629812 0.310526869 -1.6614785724 -1.3941460574 128.1362067192 331.0580612267)" id="3BPMHAxV_WEXD6D4uS7zn"  >
<path style="stroke: rgb(166,197,230); stroke-width: 0; stroke-dasharray: none; stroke-linecap: butt; stroke-dashoffset: 0; stroke-linejoin: miter; stroke-miterlimit: 4; fill: rgb(181,181,181); fill-rule: nonzero; opacity: 1;"  transform=" translate(0, 0)" d="M -57.26744 -57.26744 L 57.26744 -57.26744 L 57.26744 57.26744 L -57.26744 57.26744 z" stroke-linecap="round" />
</g>
<g transform="matrix(1 0 0 1 60.8951688957 213.5416666667)" id="5H_sJD0NcKZIZZFlyRYmN"  >
<path style="stroke: rgb(0,0,0); stroke-width: 0; stroke-dasharray: none; stroke-linecap: butt; stroke-dashoffset: 0; stroke-linejoin: miter; stroke-miterlimit: 4; fill: rgb(181,181,181); fill-rule: nonzero; opacity: 1;"  transform=" translate(0, 0)" d="M 0 0" stroke-linecap="round" />
</g>
<g transform="matrix(0.514287809 0 0 0.5602939199 25.7239406366 258.7798220472)" id="gcfhuMi_Nfx2lCX2KATLl"  >
<path style="stroke: rgb(181,104,173); stroke-width: 0; stroke-dasharray: none; stroke-linecap: butt; stroke-dashoffset: 0; stroke-linejoin: miter; stroke-miterlimit: 4; fill: rgb(181,181,181); fill-rule: nonzero; opacity: 1;"  transform=" translate(0, 0)" d="M 0 -23.14815 C 12.77778 -23.14815 23.14815 -12.777780000000002 23.14815 0 C 23.14815 12.77778 12.777780000000002 23.14815 0 23.14815 C -12.77778 23.14815 -23.14815 12.777780000000002 -23.14815 0 C -23.14815 -12.77778 -12.777780000000002 -23.14815 0 -23.14815 z" stroke-linecap="round" />
</g>
</svg>