<svg width="132" height="222" viewBox="0 0 132 222" fill="none" xmlns="http://www.w3.org/2000/svg">
<path d="M55.6032 107.186C59.3087 97.6048 72.8645 97.6048 76.57 107.185L99.9501 167.634C102.799 175 97.3639 182.929 89.4667 182.929H42.7065C34.8093 182.929 29.3743 175 32.2231 167.634L55.6032 107.186Z" fill="#FFB743"/>
<path d="M75.57 219.329C70.2363 222.524 63.5773 222.524 58.2435 219.329L43.201 210.32C28.5248 201.53 34.7571 178.995 51.8643 178.995H81.9494C99.0565 178.995 105.289 201.53 90.6126 210.32L75.57 219.329Z" fill="#FFB743"/>
<path d="M61.4507 154.149C64.6997 152.461 68.5672 152.461 71.8161 154.149L113.415 175.765C123.856 181.19 119.999 196.979 108.233 196.979L25.0341 196.979C13.2677 196.979 9.41043 181.19 19.8514 175.765L61.4507 154.149Z" fill="#FFB743"/>
<path d="M128.38 191.128C131.846 189.541 131.887 184.631 128.447 182.985L112.586 175.392C109.616 173.971 106.178 176.117 106.151 179.408L106.028 194.317C106.001 197.609 109.405 199.815 112.397 198.445L128.38 191.128Z" fill="#FFB743"/>
<path d="M105.632 182.581L87.5288 191.867L95.099 207.456L113.202 198.17L105.632 182.581Z" fill="#FFB743"/>
<path d="M110.495 180.195L74.4977 199.866L82.4557 215.249L118.453 195.578L110.495 180.195Z" fill="#FFB743"/>
<path d="M4.62314 191.128C1.1571 189.541 1.11682 184.631 4.55634 182.985L20.4171 175.392C23.3869 173.971 26.8258 176.117 26.8528 179.408L26.9751 194.317C27.0021 197.609 23.5989 199.815 20.6062 198.445L4.62314 191.128Z" fill="#FFB743"/>
<path d="M23.6022 180.195L59.5992 199.866L51.6413 215.249L15.6442 195.578L23.6022 180.195Z" fill="#FFB743"/>
<mask id="mask0_195_194" style="mask-type:alpha" maskUnits="userSpaceOnUse" x="2" y="100" width="130" height="122">
<path d="M55.6032 107.186C59.3087 97.6048 72.8645 97.6048 76.57 107.185L99.9501 167.634C102.799 175 97.3639 182.929 89.4667 182.929H42.7065C34.8093 182.929 29.3743 175 32.2231 167.634L55.6032 107.186Z" fill="#FFB743"/>
<path d="M75.57 219.329C70.2363 222.524 63.5773 222.524 58.2435 219.329L43.201 210.32C28.5248 201.53 34.7571 178.995 51.8643 178.995H81.9494C99.0565 178.995 105.289 201.53 90.6126 210.32L75.57 219.329Z" fill="#FFB743"/>
<path d="M61.4507 154.149C64.6997 152.461 68.5672 152.461 71.8161 154.149L113.415 175.765C123.856 181.19 119.999 196.979 108.233 196.979L25.0341 196.979C13.2677 196.979 9.41043 181.19 19.8514 175.765L61.4507 154.149Z" fill="#FFB743"/>
<path d="M128.38 191.128C131.846 189.541 131.887 184.631 128.447 182.985L112.586 175.392C109.616 173.971 106.178 176.117 106.151 179.408L106.028 194.317C106.001 197.609 109.405 199.815 112.397 198.445L128.38 191.128Z" fill="#FFB743"/>
<path d="M105.632 182.581L87.5288 191.867L95.099 207.456L113.202 198.17L105.632 182.581Z" fill="#FFB743"/>
<path d="M110.495 180.195L74.4977 199.866L82.4557 215.249L118.453 195.578L110.495 180.195Z" fill="#FFB743"/>
<path d="M4.62314 191.128C1.1571 189.541 1.11682 184.631 4.55634 182.985L20.4171 175.392C23.3869 173.971 26.8258 176.117 26.8528 179.408L26.9751 194.317C27.0021 197.609 23.5989 199.815 20.6062 198.445L4.62314 191.128Z" fill="#FFB743"/>
<path d="M23.6022 180.195L59.5992 199.866L51.6413 215.249L15.6442 195.578L23.6022 180.195Z" fill="#FFB743"/>
</mask>
<g mask="url(#mask0_195_194)">
<ellipse cx="65.7903" cy="163.821" rx="36.2498" ry="21.3565" fill="white"/>
<ellipse cx="65.5093" cy="146.398" rx="32.5967" ry="21.3565" fill="#FFB743"/>
<ellipse cx="66.0713" cy="129.538" rx="27.5386" ry="16.2984" fill="white"/>
<ellipse cx="66.6333" cy="112.116" rx="21.9185" ry="16.2984" fill="#FFB743"/>
</g>
<path d="M57.1522 52.6895C57.0928 54.8836 55.216 56.6128 52.9603 56.5517C50.7045 56.4907 48.924 54.6625 48.9834 52.4685C49.0428 50.2744 50.9196 48.5452 53.1753 48.6063C55.4311 48.6673 57.2116 50.4955 57.1522 52.6895Z" fill="#B98DC9"/>
<path d="M48.9672 52.9509C48.9606 52.7881 49.0908 52.6511 49.2581 52.6449L56.8746 52.3612C57.0419 52.355 57.1829 52.4819 57.1896 52.6446L57.3236 55.9206C57.3302 56.0834 57.2 56.2204 57.0327 56.2266L52.9603 56.5517L49.4162 56.5103C49.2489 56.5165 49.1079 56.3896 49.1012 56.2269L48.9672 52.9509Z" fill="#B98DC9"/>
<path d="M45.8696 83.1311L52.2418 98.8916L58.544 95.8042L49.5579 76.2466L31.6371 75.9417L23.0359 60.0038L17.0098 62.4402L27.4852 83.0136L45.8696 83.1311Z" fill="url(#paint0_linear_195_194)"/>
<path d="M98.157 61.4695L73.6673 94.9771L78.8873 98.4415L102.792 65.887L98.157 61.4695Z" fill="url(#paint1_linear_195_194)"/>
<path d="M60.229 73.1051C57.9225 81.044 64.3836 93.2677 64.3836 93.2677L69.6891 90.824C69.0882 89.5428 64.2572 78.9155 66.8897 73.8579C69.6937 68.4708 72.1751 66.5015 72.9488 60.0832C73.7224 53.665 68.3193 46.8099 71.4516 40.5691C72.7346 38.0129 74.2295 36.1167 74.2295 36.1167C74.2295 36.1167 76.2419 33.6723 77.6443 32.573L74.3421 28.1829C72.674 29.1456 66.5331 33.1574 64.9172 40.8532C63.0419 49.7845 68.1989 52.7616 67.2612 59.2119C66.3236 65.6623 62.5355 65.1661 60.229 73.1051Z" fill="url(#paint2_linear_195_194)"/>
<circle cx="7.37659" cy="79.3539" r="6.73816" fill="#73ABDE"/>
<circle cx="80.9999" cy="67.1249" r="3.36902" fill="#FFB743"/>
<path d="M104.424 93.2678C104.424 96.259 101.999 98.6838 99.0077 98.6838C96.0165 98.6838 93.5917 96.259 93.5917 93.2678C93.5917 90.2766 96.0165 87.8518 99.0077 87.8518C101.999 87.8518 104.424 90.2766 104.424 93.2678Z" fill="#73ABDE"/>
<path d="M92.2874 97.7316C91.9737 97.6861 91.781 97.3639 91.8893 97.0659L93.826 91.7383C93.9699 91.3424 94.5088 91.291 94.725 91.6525L98.3983 97.7941C98.6145 98.1555 98.3142 98.606 97.8974 98.5455L92.2874 97.7316Z" fill="#73ABDE"/>
<path d="M72.8942 1.80318C75.1191 3.80245 75.302 7.2268 73.3027 9.45168C71.3034 11.6766 67.8791 11.8595 65.6542 9.86018C63.4293 7.86091 63.2464 4.43656 65.2457 2.21168C67.245 -0.0131999 70.6693 -0.19609 72.8942 1.80318Z" fill="#73ABDE"/>
<path d="M68.1026 13.8139C67.8591 14.0168 67.4906 13.9448 67.3414 13.6651L64.6731 8.66357C64.4749 8.29194 64.7968 7.85671 65.2102 7.9375L72.2336 9.31025C72.6469 9.39105 72.7813 9.91547 72.4577 10.1851L68.1026 13.8139Z" fill="#73ABDE"/>
<path d="M31.3092 33.0675C31.3092 36.7889 28.2924 39.8057 24.571 39.8057C20.8496 39.8057 17.8328 36.7889 17.8328 33.0675C17.8328 29.3461 20.8496 26.3293 24.571 26.3293C28.2924 26.3293 31.3092 29.3461 31.3092 33.0675Z" fill="#FFB743"/>
<path d="M17.8278 33.8859C17.8095 33.6103 18.0181 33.3722 18.2937 33.3539L30.8368 32.5238C31.1123 32.5056 31.3505 32.7141 31.3687 32.9897L31.7358 38.5359C31.754 38.8114 31.5454 39.0495 31.2699 39.0678L24.571 39.8057L18.7268 39.8979C18.4512 39.9162 18.2131 39.7076 18.1948 39.432L17.8278 33.8859Z" fill="#FFB743"/>
<path d="M124.171 52.175C127.864 52.6336 130.486 55.9991 130.028 59.6921C129.569 63.3852 126.204 66.0072 122.511 65.5486C118.818 65.09 116.196 61.7245 116.654 58.0314C117.113 54.3384 120.478 51.7164 124.171 52.175Z" fill="#B98DC9"/>
<path d="M123.322 65.6545C123.046 65.6386 122.836 65.4023 122.852 65.1266L123.573 52.5768C123.589 52.3011 123.826 52.0904 124.101 52.1063L129.651 52.4255C129.926 52.4414 130.137 52.6777 130.121 52.9534L130.028 59.6921L129.399 65.5032C129.383 65.7789 129.147 65.9895 128.871 65.9737L123.322 65.6545Z" fill="#B98DC9"/>
<path d="M32.9416 99.4729C35.6646 98.8665 38.3635 100.582 38.9699 103.305C39.5762 106.028 37.8603 108.727 35.1374 109.334C32.4144 109.94 29.7155 108.224 29.1091 105.501C28.5028 102.778 30.2186 100.079 32.9416 99.4729Z" fill="#D36A6A"/>
<path d="M35.737 109.204C35.5384 109.262 35.3301 109.148 35.2719 108.95L32.6207 99.9071C32.5625 99.7085 32.6763 99.5002 32.875 99.442L36.8733 98.2697C37.072 98.2115 37.2802 98.3253 37.3385 98.524L38.9699 103.305L39.9896 107.567C40.0479 107.765 39.934 107.974 39.7354 108.032L35.737 109.204Z" fill="#D36A6A"/>
<path d="M98.833 31.608C100.886 33.4967 101.019 36.6921 99.1307 38.7452C97.242 40.7983 94.0466 40.9315 91.9935 39.0428C89.9404 37.1541 89.8072 33.9587 91.6959 31.9057C93.5845 29.8526 96.78 29.7193 98.833 31.608Z" fill="#D36A6A"/>
<path d="M92.4424 39.461C92.2811 39.3312 92.2556 39.0952 92.3854 38.934L98.2933 31.5927C98.4231 31.4314 98.6591 31.4059 98.8203 31.5357L102.066 34.148C102.228 34.2778 102.253 34.5137 102.123 34.675L99.1307 38.7452L96.2155 42.0163C96.0857 42.1775 95.8498 42.2031 95.6885 42.0733L92.4424 39.461Z" fill="#D36A6A"/>
<defs>
<linearGradient id="paint0_linear_195_194" x1="29.062" y1="57.5673" x2="46.6792" y2="101.141" gradientUnits="userSpaceOnUse">
<stop stop-color="#75A78F" stop-opacity="0.5"/>
<stop offset="1" stop-color="#75A78F"/>
</linearGradient>
<linearGradient id="paint1_linear_195_194" x1="89.9379" y1="60.756" x2="86.6082" y2="99.1118" gradientUnits="userSpaceOnUse">
<stop stop-color="#75A78F" stop-opacity="0.5"/>
<stop offset="1" stop-color="#75A78F"/>
</linearGradient>
<linearGradient id="paint2_linear_195_194" x1="68.8657" y1="27.9524" x2="68.8657" y2="93.2677" gradientUnits="userSpaceOnUse">
<stop stop-color="#28897D" stop-opacity="0.5"/>
<stop offset="0.9999" stop-color="#28897D"/>
<stop offset="1" stop-color="#2D7C73" stop-opacity="0"/>
<stop offset="1" stop-color="#2D7C73"/>
</linearGradient>
</defs>
</svg>
