<svg width="100" height="100" viewBox="0 0 100 100" fill="none" xmlns="http://www.w3.org/2000/svg">
    <path fill-rule="evenodd" clip-rule="evenodd" d="M25 7.37188C15.2642 7.37188 7.37182 15.2643 7.37182 25.0001C7.37182 34.7359 15.2642 42.6283 25 42.6283C34.7358 42.6283 42.6282 34.7359 42.6282 25.0001C42.6282 15.2643 34.7358 7.37188 25 7.37188ZM4.16669 25.0001C4.16669 13.4942 13.4941 4.16675 25 4.16675C36.506 4.16675 45.8334 13.4942 45.8334 25.0001C45.8334 36.506 36.506 45.8334 25 45.8334C13.4941 45.8334 4.16669 36.506 4.16669 25.0001Z" fill="#75A78F"/>
    <path fill-rule="evenodd" clip-rule="evenodd" d="M25 16.9873C23.5249 16.9873 22.3291 18.1831 22.3291 19.6582C22.3291 20.5433 21.6116 21.2608 20.7265 21.2608C19.8414 21.2608 19.124 20.5433 19.124 19.6582C19.124 16.4129 21.7548 13.7821 25 13.7821C28.2453 13.7821 30.8761 16.4129 30.8761 19.6582C30.8761 20.8256 30.534 21.918 29.9441 22.8348C29.5746 23.409 29.1426 23.9572 28.7442 24.4523C28.6714 24.5429 28.5998 24.6315 28.5294 24.7186C28.1989 25.1277 27.8955 25.5032 27.6151 25.8885C26.9237 26.8387 26.6026 27.5529 26.6026 28.2052C26.6026 29.0903 25.8851 29.8078 25 29.8078C24.115 29.8078 23.3975 29.0903 23.3975 28.2052C23.3975 26.4974 24.2359 25.0851 25.0234 24.0028C25.3562 23.5454 25.7208 23.0944 26.0524 22.6842C26.1188 22.6021 26.1839 22.5216 26.2471 22.443C26.6428 21.9512 26.9797 21.5186 27.2487 21.1004C27.5158 20.6853 27.671 20.1923 27.671 19.6582C27.671 18.1831 26.4751 16.9873 25 16.9873Z" fill="#75A78F"/>
    <path d="M27.1368 34.6155C27.1368 35.7956 26.1801 36.7522 25 36.7522C23.8199 36.7522 22.8633 35.7956 22.8633 34.6155C22.8633 33.4354 23.8199 32.4787 25 32.4787C26.1801 32.4787 27.1368 33.4354 27.1368 34.6155Z" fill="#75A78F"/>
</svg>
