<svg width="1076" height="183" viewBox="0 0 1076 183" fill="none" xmlns="http://www.w3.org/2000/svg">
    <path d="M576.71 160.458L576.636 160.379L576.57 160.294C568.469 149.917 565.975 141.316 564.632 136.402C563.39 131.857 562.404 124.288 561.726 116.508C561.043 108.675 560.655 100.418 560.655 94.3984V94.3853C560.655 88.4545 560.655 78.9555 561.069 69.3948C561.482 59.8946 562.31 50.0855 564.039 43.6519L564.051 43.6102L564.063 43.569C567.227 33.2351 568.893 29.6906 571.502 25.8242C572.836 23.6786 575.264 21.156 578.235 18.6726C581.27 16.135 585.026 13.5097 589.128 11.2188L589.157 11.2025L589.187 11.187C600.691 5.16123 617.79 3.39563 627.239 3.39563C632.085 3.39563 638.983 4.06582 645.806 5.38218C652.585 6.68996 659.565 8.68657 664.426 11.4638C664.518 11.5167 664.633 11.58 664.771 11.656C666.29 12.4947 670.599 14.8734 678.7 21.7706C679.818 22.7225 680.956 24.2207 682.02 25.9109C683.113 27.6471 684.233 29.7549 685.281 32.0678C687.371 36.6774 689.247 42.2619 690.02 47.55C691.279 56.1551 692.737 79.3844 692.737 91.3347V91.3757L692.736 91.4167C692.653 93.939 692.61 96.3341 692.567 98.7122C692.41 107.481 692.257 116.017 690.128 129.851C689.2 135.879 686.599 146.661 679.772 156.191C670.759 168.774 662.172 172.734 654.11 175.882C648.722 177.985 638.74 179.274 627.239 179.274H627.2L627.16 179.273C625.935 179.234 624.695 179.209 623.438 179.184C614.67 179.011 605.069 178.822 593.86 173.58C591.84 172.636 589.579 171.572 586.793 169.607C584.022 167.653 580.797 164.854 576.71 160.458ZM603.474 42.6424C601.773 44.3973 599.926 46.9065 598.254 50.8207C597.867 52.1021 597.502 54.5021 597.197 57.7628C596.89 61.0393 596.659 64.9732 596.489 69.0726C596.148 77.2679 596.05 86.0261 596.05 91.3045C596.05 101.814 596.673 112.999 597.539 123.391C598.156 130.796 601.257 136.148 606.381 141.218C611.527 145.687 619.768 147.685 627.239 147.685C634.672 147.685 643.162 145.225 647.886 140.264L647.95 140.196C650.106 137.933 654.905 132.896 655.683 124.832C656.777 113.49 657.451 101.837 657.451 91.3347C657.451 89.4633 657.479 87.3173 657.51 84.996C657.57 80.4865 657.638 75.3157 657.524 70.2121C657.438 66.3739 657.25 62.6564 656.883 59.4063C656.511 56.1162 655.974 53.4739 655.264 51.6972C653.654 47.6713 652.288 45.4915 651.094 44.0695C650.176 42.9761 649.363 42.3093 648.362 41.4888C648.012 41.2017 647.639 40.8959 647.23 40.5464C641.809 35.909 633.976 33.2605 626.702 33.2605C624.044 33.2605 620.567 33.7658 617.143 34.7285C613.7 35.6964 610.525 37.0666 608.359 38.669C608.077 38.8774 607.793 39.0824 607.506 39.2898C606.235 40.2063 604.905 41.1665 603.474 42.6424Z" fill="#2D7C73" stroke="#2D7C73" stroke-width="5"/>
    <path d="M18.9168 159.652L18.8435 159.573L18.7773 159.488C10.6758 149.112 8.18171 140.51 6.83874 135.596C5.59669 131.052 4.611 123.483 3.93272 115.702C3.24993 107.87 2.86178 99.6129 2.86178 93.5928V93.5798C2.86178 87.6489 2.86178 78.15 3.2765 68.5893C3.68861 59.0891 4.51756 49.2799 6.24646 42.8464L6.25767 42.8047L6.2703 42.7634C9.43368 32.4296 11.1005 28.885 13.7092 25.0186C15.0429 22.8731 17.4715 20.3504 20.4418 17.867C23.4769 15.3294 27.2327 12.7041 31.3352 10.4133L31.3644 10.397L31.394 10.3814C42.8978 4.35568 59.9967 2.59009 69.4465 2.59009C74.2925 2.59009 81.1901 3.26028 88.0133 4.57664C94.792 5.88441 101.773 7.88102 106.633 10.6583C106.717 10.7062 106.793 10.7408 106.943 10.8092C107.093 10.8775 107.316 10.9795 107.695 11.162C108.325 11.4651 109.146 11.8876 110.21 12.5311C112.329 13.8122 115.366 15.9397 119.773 19.6915C121.755 21.3792 124.24 24.6532 126.395 28.6701C128.575 32.7339 130.54 37.783 131.323 43.1333C131.627 45.2162 131.803 49.3245 131.88 53.5207C131.957 57.7102 128.556 61.0663 124.426 61.0663H106.417C102.324 61.0663 99.2631 57.8622 98.5906 54.2433C98.1938 52.108 97.6499 50.2651 97.2123 49.1709C95.6007 45.1413 94.1551 42.7197 92.9279 41.1247C91.8138 39.6766 90.8378 38.8458 89.8357 37.9929C89.7423 37.9134 89.6487 37.8338 89.5547 37.7534C84.392 33.337 76.7046 32.455 68.9094 32.455C66.2509 32.455 62.7744 32.9603 59.3502 33.923C55.9074 34.8909 52.7324 36.261 50.5661 37.8635C50.2845 38.0718 50.0002 38.2769 49.7129 38.4842C48.4425 39.4008 47.1116 40.361 45.6812 41.8369C43.9803 43.5917 42.1333 46.101 40.4609 50.0152C40.074 51.2966 39.7096 53.6965 39.4041 56.9572C39.0971 60.2337 38.8664 64.1677 38.6958 68.2671C38.3547 76.4623 38.2574 85.2206 38.2574 90.499C38.2574 101.009 38.8804 112.193 39.7464 122.585C40.3635 129.99 43.4637 135.342 48.5886 140.412C53.7337 144.881 61.9755 146.879 69.4465 146.879C76.8792 146.879 85.3687 144.419 90.0934 139.458C90.3361 139.203 90.6066 138.931 90.8972 138.639C93.3398 136.185 97.1992 132.306 97.8937 125.108C98.2503 121.413 101.361 118.319 105.239 118.319H124.426C128.561 118.319 131.964 121.693 131.789 125.92C131.683 128.471 131.521 131.315 131.33 132.846C130.419 140.129 127.398 149.618 122.883 155.922C114.122 168.152 104.866 171.751 97.159 174.748C96.8761 174.858 96.5953 174.967 96.3166 175.076C90.9294 177.179 80.947 178.468 69.4465 178.468H69.4067L69.367 178.467C68.1419 178.428 66.9021 178.404 65.6451 178.379C56.8769 178.206 47.2762 178.016 36.0668 172.775C34.0473 171.831 31.7858 170.767 29.0005 168.802C26.2294 166.847 23.0037 164.048 18.9168 159.652Z" fill="#2D7C73" stroke="#2D7C73" stroke-width="5"/>
    <path d="M960.257 160.458L960.184 160.379L960.118 160.294C952.016 149.917 949.522 141.316 948.179 136.402C946.937 131.857 945.951 124.288 945.273 116.508C944.59 108.675 944.202 100.418 944.202 94.3984V94.3853C944.202 88.4545 944.202 78.9555 944.617 69.3948C945.029 59.8946 945.858 50.0855 947.587 43.6519L947.598 43.6102L947.611 43.569C950.774 33.2351 952.441 29.6906 955.05 25.8242C956.383 23.6786 958.812 21.156 961.782 18.6726C964.817 16.135 968.573 13.5097 972.676 11.2188L972.705 11.2025L972.734 11.187C984.238 5.16123 1001.34 3.39563 1010.79 3.39563C1015.63 3.39563 1022.53 4.06582 1029.35 5.38218C1036.13 6.68996 1043.11 8.68657 1047.97 11.4638C1048.06 11.5118 1048.13 11.5464 1048.28 11.6148C1048.43 11.6831 1048.66 11.785 1049.04 11.9675C1049.67 12.2707 1050.49 12.6932 1051.55 13.3367C1053.67 14.6177 1056.71 16.7453 1061.11 20.4971C1063.1 22.1847 1065.58 25.4587 1067.74 29.4757C1069.92 33.5395 1071.88 38.5885 1072.66 43.9388C1072.97 46.0217 1073.14 50.13 1073.22 54.3262C1073.3 58.5157 1069.9 61.8718 1065.77 61.8718H1047.76C1043.66 61.8718 1040.6 58.6678 1039.93 55.0488C1039.53 52.9136 1038.99 51.0707 1038.55 49.9764C1036.94 45.9468 1035.5 43.5252 1034.27 41.9302C1033.15 40.4821 1032.18 39.6514 1031.18 38.7985C1031.08 38.719 1030.99 38.6393 1030.9 38.5589C1025.73 34.1425 1018.05 33.2605 1010.25 33.2605C1007.59 33.2605 1004.11 33.7658 1000.69 34.7285C997.248 35.6964 994.073 37.0666 991.907 38.669C991.625 38.8774 991.341 39.0824 991.053 39.2898C989.783 40.2063 988.452 41.1665 987.022 42.6424C985.321 44.3973 983.474 46.9065 981.801 50.8207C981.414 52.1021 981.05 54.5021 980.745 57.7628C980.438 61.0393 980.207 64.9732 980.036 69.0726C979.695 77.2679 979.598 86.0261 979.598 91.3045C979.598 101.814 980.221 112.999 981.087 123.391C981.704 130.796 984.804 136.148 989.929 141.218C995.074 145.687 1003.32 147.685 1010.79 147.685C1018.22 147.685 1026.71 145.225 1031.43 140.264C1031.68 140.009 1031.95 139.737 1032.24 139.445C1034.68 136.99 1038.54 133.111 1039.23 125.914C1039.59 122.218 1042.7 119.124 1046.58 119.124H1065.77C1069.9 119.124 1073.3 122.499 1073.13 126.726C1073.02 129.277 1072.86 132.12 1072.67 133.652C1071.76 140.935 1068.74 150.424 1064.22 156.727C1055.46 168.958 1046.21 172.557 1038.5 175.554C1038.22 175.664 1037.94 175.773 1037.66 175.882C1032.27 177.985 1022.29 179.274 1010.79 179.274H1010.75L1010.71 179.273C1009.48 179.234 1008.24 179.209 1006.99 179.184C998.217 179.011 988.617 178.822 977.407 173.58C975.388 172.636 973.126 171.572 970.341 169.607C967.57 167.653 964.344 164.854 960.257 160.458Z" fill="#2D7C73" stroke="#2D7C73" stroke-width="5"/>
    <path d="M196.925 160.46V134.185H256.426V160.46C256.426 165.487 258 169.952 261.243 173.607L261.604 174.014L262.06 174.309C264.145 175.66 266.029 176.437 268.003 176.828C269.801 177.184 271.546 177.184 273.117 177.183L273.282 177.183L273.486 177.183C275.364 177.184 277.231 177.184 279.082 176.835C281.137 176.448 283.013 175.674 285.154 174.365L285.663 174.054L286.06 173.607C289.303 169.952 290.876 165.487 290.876 160.46V22.631C290.876 17.6885 289.423 13.2956 286.307 9.76295C282.796 5.61605 277.894 5.67493 274.567 5.71491C274.257 5.71862 273.962 5.72217 273.682 5.72217C273.439 5.72217 273.185 5.7196 272.921 5.71693C269.812 5.68546 265.309 5.6399 261.568 9.59997C258.103 13.1136 256.426 17.5614 256.426 22.631V106.392H196.925V22.631C196.925 17.5792 195.26 13.1449 191.821 9.63714C188.21 5.638 183.796 5.68508 180.816 5.71687C180.563 5.71957 180.32 5.72215 180.09 5.72215C179.81 5.72215 179.515 5.71884 179.207 5.71539C175.848 5.67766 170.966 5.62283 167.332 9.6782C164.039 13.2032 162.475 17.6253 162.475 22.631V160.46C162.475 165.426 163.94 169.862 167.007 173.522L167.388 173.976L167.885 174.301C169.938 175.642 171.782 176.435 173.817 176.831C175.635 177.184 177.478 177.184 179.285 177.183L179.49 177.183H179.617C183.197 177.183 186.685 177.184 191.094 174.3L191.496 174.037L191.824 173.687C195.239 170.041 196.925 165.548 196.925 160.46Z" fill="#2D7C73" stroke="#2D7C73" stroke-width="8"/>
    <path d="M903.192 175.33L903.702 175.018L904.098 174.572C907.341 170.917 908.915 166.451 908.915 161.425V23.5958C908.915 18.6532 907.461 14.2603 904.345 10.7277C900.834 6.58087 895.933 6.63975 892.605 6.67973C892.296 6.68345 892 6.687 891.72 6.687C891.478 6.687 891.223 6.68442 890.959 6.68175C887.85 6.65028 883.348 6.60472 879.606 10.5648C876.141 14.0784 874.464 18.5262 874.464 23.5958V161.425C874.464 166.451 876.038 170.917 879.281 174.572L879.642 174.979L880.098 175.274C882.183 176.625 884.067 177.402 886.041 177.793C887.839 178.149 889.584 178.148 891.155 178.148L891.32 178.148L891.524 178.148C893.403 178.148 895.269 178.149 897.12 177.8C899.175 177.412 901.052 176.639 903.192 175.33Z" fill="#2D7C73" stroke="#2D7C73" stroke-width="8"/>
    <path d="M791.395 175.33L791.905 175.018L792.301 174.572C795.544 170.917 797.118 166.451 797.118 161.425V23.5958C797.118 18.6532 795.664 14.2603 792.548 10.7277C789.037 6.58087 784.136 6.63975 780.808 6.67973C780.499 6.68345 780.203 6.687 779.923 6.687C779.681 6.687 779.426 6.68442 779.162 6.68175C776.053 6.65028 771.551 6.60472 767.809 10.5648C764.344 14.0784 762.667 18.5262 762.667 23.5958V161.425C762.667 166.451 764.241 170.917 767.484 174.572L767.845 174.979L768.301 175.274C770.386 176.625 772.27 177.402 774.244 177.793C776.042 178.149 777.787 178.148 779.358 178.148L779.523 178.148L779.727 178.148C781.606 178.148 783.472 178.149 785.323 177.8C787.378 177.412 789.255 176.639 791.395 175.33Z" fill="#2D7C73" stroke="#2D7C73" stroke-width="8"/>
    <path d="M716.719 33.4456L716.969 33.9505L717.348 34.3669C720.227 37.5264 723.91 39.2038 728.169 39.2038L831.474 39.2038C835.641 39.2038 839.276 37.6596 842.08 34.6032C843.86 32.7372 844.601 30.5891 844.912 28.5695C845.164 26.9349 845.157 25.1478 845.152 23.6244C845.151 23.401 845.15 23.1832 845.15 22.9724C845.15 22.7398 845.152 22.4957 845.155 22.2415C845.181 19.4175 845.22 15.3446 842.226 11.8412C839.475 8.48915 835.804 6.68372 831.474 6.68372L728.169 6.68371C723.91 6.68371 720.227 8.36116 717.348 11.5206L717.001 11.9018L716.761 12.3586C714.633 16.4232 714.633 19.2968 714.633 22.5206L714.633 22.6014L714.633 22.7753C714.633 24.5288 714.632 26.2194 714.887 27.8938C715.169 29.7401 715.734 31.4537 716.719 33.4456Z" fill="#2D7C73" stroke="#2D7C73" stroke-width="8"/>
    <path d="M242.281 113.601L241.409 102.881C250.269 102.881 251.945 99.7049 253.023 88.0615L263.022 111.789L242.281 113.601Z" fill="#2D7C73"/>
    <path d="M253.054 87.725C253.043 87.8382 253.033 87.9504 253.023 88.0615M253.023 88.0615C251.945 99.7049 250.269 102.881 241.409 102.881L242.281 113.601L263.022 111.789L253.023 88.0615Z" stroke="#2D7C73"/>
    <path d="M210.537 113.76L211.409 103.04C202.549 103.04 199.743 101.219 200.196 88.3274L189.796 111.948L210.537 113.76Z" fill="#2D7C73" stroke="#2D7C73"/>
    <path d="M209.86 126.929L210.731 137.649L210.573 137.649C201.092 137.649 199.635 137.649 200.085 150.469L189.119 128.742L209.86 126.929Z" fill="#2D7C73" stroke="#2D7C73"/>
    <path d="M243.193 126.624L242.321 137.344L242.48 137.344C251.961 137.344 253.417 137.344 252.968 150.164L263.934 128.437L243.193 126.624Z" fill="#2D7C73" stroke="#2D7C73"/>
    <path d="M414.232 11.9087C421.916 -1.49414 441.248 -1.49411 448.933 11.9088L528.409 150.527C536.054 163.86 526.428 180.475 511.059 180.475H352.106C336.737 180.475 327.111 163.86 334.756 150.527L414.232 11.9087Z" fill="#FFB743"/>
    <path d="M435.92 23.8981L511.472 155.671C513.383 159.005 510.976 163.158 507.134 163.158H356.031C352.189 163.158 349.782 159.005 351.693 155.671L427.245 23.8981C429.166 20.5473 433.999 20.5473 435.92 23.8981Z" fill="#FFB743" stroke="black" stroke-width="10"/>
    <path d="M431.645 117.842C428.791 117.842 427.238 116.247 426.987 113.058L423.335 66.7213C423.167 64.119 423.839 61.9365 425.35 60.1737C426.945 58.4109 429.001 57.5295 431.52 57.5295C434.038 57.5295 436.094 58.4109 437.689 60.1737C439.284 61.9365 439.956 64.119 439.704 66.7213L436.178 113.058C435.927 116.247 434.416 117.842 431.645 117.842ZM430.764 145.669C428.33 145.669 426.441 145.04 425.098 143.781C423.839 142.438 423.209 140.549 423.209 138.114V135.974C423.209 133.54 423.839 131.693 425.098 130.434C426.441 129.091 428.33 128.419 430.764 128.419H432.401C434.835 128.419 436.682 129.091 437.941 130.434C439.284 131.693 439.956 133.54 439.956 135.974V138.114C439.956 140.549 439.284 142.438 437.941 143.781C436.682 145.04 434.835 145.669 432.401 145.669H430.764Z" fill="black"/>
</svg>