<svg width="238" height="45" viewBox="0 0 238 45" fill="none" xmlns="http://www.w3.org/2000/svg">
    <path d="M13.0858 10.8C14.4298 10.8 15.6178 11.112 16.6498 11.736C17.6818 12.336 18.4978 13.176 19.0978 14.256C19.6978 15.336 19.9978 16.572 19.9978 17.964C19.9978 19.356 19.6978 20.616 19.0978 21.744C18.4978 22.848 17.6818 23.724 16.6498 24.372C15.6178 25.02 14.4298 25.344 13.0858 25.344H5.45384L5.63384 24.984V34.92C5.63384 35.208 5.52584 35.46 5.30984 35.676C5.09384 35.892 4.84184 36 4.55384 36C4.21784 36 3.95384 35.892 3.76184 35.676C3.56984 35.46 3.47384 35.208 3.47384 34.92V11.88C3.47384 11.592 3.58184 11.34 3.79784 11.124C4.01384 10.908 4.26584 10.8 4.55384 10.8H13.0858ZM13.0858 23.256C14.0218 23.256 14.8378 23.028 15.5338 22.572C16.2298 22.092 16.7698 21.456 17.1538 20.664C17.5618 19.848 17.7658 18.948 17.7658 17.964C17.7658 16.98 17.5618 16.116 17.1538 15.372C16.7698 14.604 16.2298 14.004 15.5338 13.572C14.8378 13.14 14.0218 12.924 13.0858 12.924H5.45384L5.63384 12.6V23.472L5.41784 23.256H13.0858ZM26.7552 34.92C26.7552 35.208 26.6472 35.46 26.4312 35.676C26.2152 35.892 25.9632 36 25.6752 36C25.3632 36 25.0992 35.892 24.8832 35.676C24.6912 35.46 24.5952 35.208 24.5952 34.92V10.44C24.5952 10.152 24.7032 9.9 24.9192 9.684C25.1352 9.468 25.3872 9.36 25.6752 9.36C25.9872 9.36 26.2392 9.468 26.4312 9.684C26.6472 9.9 26.7552 10.152 26.7552 10.44V34.92ZM47.76 17.604C48.072 17.604 48.324 17.712 48.516 17.928C48.732 18.144 48.84 18.408 48.84 18.72V34.92C48.84 35.208 48.732 35.46 48.516 35.676C48.3 35.892 48.048 36 47.76 36C47.448 36 47.184 35.892 46.968 35.676C46.776 35.46 46.68 35.208 46.68 34.92V30.636L47.292 30.348C47.292 31.02 47.1 31.704 46.716 32.4C46.356 33.096 45.852 33.744 45.204 34.344C44.556 34.944 43.788 35.436 42.9 35.82C42.036 36.18 41.1 36.36 40.092 36.36C38.46 36.36 36.996 35.94 35.7 35.1C34.428 34.26 33.42 33.108 32.676 31.644C31.956 30.18 31.596 28.536 31.596 26.712C31.596 24.84 31.968 23.196 32.712 21.78C33.456 20.34 34.464 19.212 35.736 18.396C37.008 17.58 38.448 17.172 40.056 17.172C41.088 17.172 42.048 17.352 42.936 17.712C43.848 18.072 44.64 18.564 45.312 19.188C45.984 19.812 46.5 20.532 46.86 21.348C47.244 22.14 47.436 22.968 47.436 23.832L46.68 23.292V18.72C46.68 18.408 46.776 18.144 46.968 17.928C47.184 17.712 47.448 17.604 47.76 17.604ZM40.272 34.344C41.544 34.344 42.672 34.02 43.656 33.372C44.64 32.7 45.408 31.788 45.96 30.636C46.536 29.46 46.824 28.152 46.824 26.712C46.824 25.296 46.536 24.024 45.96 22.896C45.408 21.768 44.64 20.868 43.656 20.196C42.672 19.524 41.544 19.188 40.272 19.188C39.024 19.188 37.896 19.512 36.888 20.16C35.904 20.808 35.124 21.696 34.548 22.824C33.996 23.952 33.72 25.248 33.72 26.712C33.72 28.152 33.996 29.46 34.548 30.636C35.124 31.788 35.904 32.7 36.888 33.372C37.872 34.02 39 34.344 40.272 34.344ZM68.2241 17.28C68.5361 17.28 68.7881 17.388 68.9801 17.604C69.1961 17.82 69.3041 18.072 69.3041 18.36V34.236C69.3041 36.18 68.9201 37.812 68.1521 39.132C67.3841 40.476 66.3521 41.484 65.0561 42.156C63.7601 42.852 62.2841 43.2 60.6281 43.2C59.5961 43.2 58.6361 43.08 57.7481 42.84C56.8841 42.624 56.1761 42.336 55.6241 41.976C55.3361 41.808 55.1201 41.604 54.9761 41.364C54.8321 41.124 54.8201 40.872 54.9401 40.608C55.0601 40.272 55.2401 40.044 55.4801 39.924C55.7441 39.828 56.0081 39.84 56.2721 39.96C56.6801 40.176 57.2681 40.44 58.0361 40.752C58.8041 41.064 59.6801 41.22 60.6641 41.22C61.9841 41.22 63.1241 40.944 64.0841 40.392C65.0681 39.84 65.8241 39.036 66.3521 37.98C66.8801 36.948 67.1441 35.712 67.1441 34.272V31.68L67.3961 32.544C67.0361 33.288 66.5201 33.948 65.8481 34.524C65.2001 35.1 64.4441 35.556 63.5801 35.892C62.7401 36.204 61.8401 36.36 60.8801 36.36C59.4401 36.36 58.2401 36.072 57.2801 35.496C56.3441 34.896 55.6481 34.08 55.1921 33.048C54.7361 32.016 54.5081 30.804 54.5081 29.412V18.36C54.5081 18.072 54.6041 17.82 54.7961 17.604C54.9881 17.388 55.2521 17.28 55.5881 17.28C55.9001 17.28 56.1521 17.388 56.3441 17.604C56.5601 17.82 56.6681 18.072 56.6681 18.36V29.088C56.6681 30.768 57.0281 32.064 57.7481 32.976C58.4921 33.888 59.6921 34.344 61.3481 34.344C62.3801 34.344 63.3281 34.104 64.1921 33.624C65.0561 33.12 65.7641 32.472 66.3161 31.68C66.8681 30.864 67.1441 30 67.1441 29.088V18.36C67.1441 18.072 67.2401 17.82 67.4321 17.604C67.6481 17.388 67.9121 17.28 68.2241 17.28ZM93.7768 13.572L85.0288 35.316C84.9328 35.556 84.8008 35.736 84.6328 35.856C84.4648 35.976 84.2728 36.036 84.0568 36.036C83.7208 36.036 83.4688 35.952 83.3008 35.784C83.1328 35.592 83.0368 35.364 83.0128 35.1C82.9888 34.98 83.0008 34.836 83.0488 34.668L92.5527 11.412C92.6728 11.148 92.8168 10.968 92.9848 10.872C93.1768 10.752 93.3928 10.692 93.6328 10.692C93.8728 10.692 94.0768 10.764 94.2448 10.908C94.4368 11.028 94.5808 11.196 94.6768 11.412L104.145 34.56C104.193 34.704 104.217 34.848 104.217 34.992C104.217 35.328 104.109 35.592 103.893 35.784C103.677 35.952 103.425 36.036 103.137 36.036C102.897 36.036 102.681 35.976 102.489 35.856C102.321 35.712 102.189 35.532 102.093 35.316L93.1288 13.428L93.7768 13.572ZM87.1168 28.728L88.0168 26.604H99.1768L99.6088 28.728H87.1168ZM115.789 17.172C116.869 17.172 117.865 17.364 118.777 17.748C119.689 18.108 120.481 18.588 121.153 19.188C121.849 19.764 122.389 20.388 122.773 21.06C123.157 21.708 123.349 22.332 123.349 22.932L122.737 22.068V18.72C122.737 18.408 122.833 18.144 123.025 17.928C123.241 17.712 123.505 17.604 123.817 17.604C124.153 17.604 124.417 17.712 124.609 17.928C124.801 18.144 124.897 18.408 124.897 18.72V34.308C124.897 36.228 124.501 37.848 123.709 39.168C122.917 40.488 121.837 41.484 120.469 42.156C119.125 42.852 117.589 43.2 115.861 43.2C115.021 43.2 114.133 43.092 113.197 42.876C112.285 42.66 111.493 42.384 110.821 42.048C110.173 41.712 109.813 41.364 109.741 41.004C109.549 40.788 109.453 40.572 109.453 40.356C109.477 40.164 109.585 39.996 109.777 39.852C110.017 39.684 110.269 39.66 110.533 39.78C110.797 39.924 111.193 40.104 111.721 40.32C111.961 40.392 112.285 40.5 112.693 40.644C113.101 40.788 113.581 40.908 114.133 41.004C114.709 41.124 115.309 41.184 115.933 41.184C118.093 41.184 119.761 40.56 120.937 39.312C122.137 38.088 122.737 36.468 122.737 34.452V30.996L123.133 31.104C122.917 31.968 122.557 32.724 122.053 33.372C121.573 34.02 120.997 34.572 120.325 35.028C119.653 35.46 118.921 35.784 118.129 36C117.361 36.24 116.593 36.36 115.825 36.36C114.169 36.36 112.681 35.94 111.361 35.1C110.041 34.26 108.985 33.12 108.193 31.68C107.425 30.24 107.041 28.596 107.041 26.748C107.041 24.924 107.425 23.292 108.193 21.852C108.985 20.388 110.029 19.248 111.325 18.432C112.645 17.592 114.133 17.172 115.789 17.172ZM116.041 19.188C114.721 19.188 113.533 19.524 112.477 20.196C111.445 20.844 110.629 21.744 110.029 22.896C109.453 24.024 109.165 25.308 109.165 26.748C109.165 28.188 109.453 29.484 110.029 30.636C110.629 31.788 111.445 32.7 112.477 33.372C113.533 34.02 114.721 34.344 116.041 34.344C117.361 34.344 118.537 34.02 119.569 33.372C120.601 32.724 121.417 31.836 122.017 30.708C122.617 29.556 122.917 28.236 122.917 26.748C122.917 25.26 122.617 23.952 122.017 22.824C121.417 21.672 120.601 20.784 119.569 20.16C118.537 19.512 117.361 19.188 116.041 19.188ZM145.494 17.604C145.806 17.604 146.058 17.712 146.25 17.928C146.466 18.144 146.574 18.408 146.574 18.72V34.92C146.574 35.208 146.466 35.46 146.25 35.676C146.034 35.892 145.782 36 145.494 36C145.182 36 144.918 35.892 144.702 35.676C144.51 35.46 144.414 35.208 144.414 34.92V30.636L145.026 30.348C145.026 31.02 144.834 31.704 144.45 32.4C144.09 33.096 143.586 33.744 142.938 34.344C142.29 34.944 141.522 35.436 140.634 35.82C139.77 36.18 138.834 36.36 137.826 36.36C136.194 36.36 134.73 35.94 133.434 35.1C132.162 34.26 131.154 33.108 130.41 31.644C129.69 30.18 129.33 28.536 129.33 26.712C129.33 24.84 129.702 23.196 130.446 21.78C131.19 20.34 132.198 19.212 133.47 18.396C134.742 17.58 136.182 17.172 137.79 17.172C138.822 17.172 139.782 17.352 140.67 17.712C141.582 18.072 142.374 18.564 143.046 19.188C143.718 19.812 144.234 20.532 144.594 21.348C144.978 22.14 145.17 22.968 145.17 23.832L144.414 23.292V18.72C144.414 18.408 144.51 18.144 144.702 17.928C144.918 17.712 145.182 17.604 145.494 17.604ZM138.006 34.344C139.278 34.344 140.406 34.02 141.39 33.372C142.374 32.7 143.142 31.788 143.694 30.636C144.27 29.46 144.558 28.152 144.558 26.712C144.558 25.296 144.27 24.024 143.694 22.896C143.142 21.768 142.374 20.868 141.39 20.196C140.406 19.524 139.278 19.188 138.006 19.188C136.758 19.188 135.63 19.512 134.622 20.16C133.638 20.808 132.858 21.696 132.282 22.824C131.73 23.952 131.454 25.248 131.454 26.712C131.454 28.152 131.73 29.46 132.282 30.636C132.858 31.788 133.638 32.7 134.622 33.372C135.606 34.02 136.734 34.344 138.006 34.344ZM154.33 34.92C154.33 35.208 154.222 35.46 154.006 35.676C153.79 35.892 153.538 36 153.25 36C152.938 36 152.674 35.892 152.458 35.676C152.266 35.46 152.17 35.208 152.17 34.92V18.36C152.17 18.072 152.266 17.82 152.458 17.604C152.674 17.388 152.938 17.28 153.25 17.28C153.562 17.28 153.814 17.388 154.006 17.604C154.222 17.82 154.33 18.072 154.33 18.36V34.92ZM153.25 14.868C152.746 14.868 152.362 14.76 152.098 14.544C151.858 14.304 151.738 13.968 151.738 13.536V13.176C151.738 12.744 151.87 12.42 152.134 12.204C152.422 11.964 152.806 11.844 153.286 11.844C153.742 11.844 154.09 11.964 154.33 12.204C154.594 12.42 154.726 12.744 154.726 13.176V13.536C154.726 13.968 154.594 14.304 154.33 14.544C154.09 14.76 153.73 14.868 153.25 14.868ZM168.618 17.172C170.202 17.172 171.462 17.496 172.398 18.144C173.358 18.768 174.042 19.632 174.45 20.736C174.882 21.816 175.098 23.016 175.098 24.336V34.92C175.098 35.208 174.99 35.46 174.774 35.676C174.558 35.892 174.306 36 174.018 36C173.682 36 173.418 35.892 173.226 35.676C173.034 35.46 172.938 35.208 172.938 34.92V24.444C172.938 23.484 172.782 22.608 172.47 21.816C172.158 21.024 171.642 20.388 170.922 19.908C170.226 19.428 169.302 19.188 168.15 19.188C167.118 19.188 166.134 19.428 165.198 19.908C164.286 20.388 163.542 21.024 162.966 21.816C162.39 22.608 162.102 23.484 162.102 24.444V34.92C162.102 35.208 161.994 35.46 161.778 35.676C161.562 35.892 161.31 36 161.022 36C160.686 36 160.422 35.892 160.23 35.676C160.038 35.46 159.942 35.208 159.942 34.92V18.792C159.942 18.504 160.038 18.252 160.23 18.036C160.446 17.82 160.71 17.712 161.022 17.712C161.334 17.712 161.586 17.82 161.778 18.036C161.994 18.252 162.102 18.504 162.102 18.792V21.816L161.274 23.112C161.322 22.344 161.562 21.612 161.994 20.916C162.45 20.196 163.026 19.56 163.722 19.008C164.418 18.432 165.186 17.988 166.026 17.676C166.89 17.34 167.754 17.172 168.618 17.172Z" fill="#ADADAD"/>
    <path d="M218 8.33325C227.205 8.33325 234.667 15.7952 234.667 24.9999C234.667 34.2047 227.205 41.6666 218 41.6666C210.74 41.6666 204.569 37.0264 202.282 30.5553C201.975 29.6875 202.43 28.7353 203.298 28.4285C204.166 28.1218 205.118 28.5766 205.425 29.4445C207.256 34.6254 212.197 38.3333 218 38.3333C225.364 38.3333 231.333 32.3637 231.333 24.9999C231.333 17.6361 225.364 11.6666 218 11.6666C215.414 11.6666 213.223 12.6019 211.14 14.0676C209.738 15.0535 208.442 16.235 207.126 17.4999H212.167C213.087 17.4999 213.833 18.2461 213.833 19.1666C213.833 20.0871 213.087 20.8333 212.167 20.8333H203C202.079 20.8333 201.333 20.0871 201.333 19.1666V9.99992C201.333 9.07944 202.079 8.33325 203 8.33325C203.92 8.33325 204.667 9.07944 204.667 9.99992V15.2394C206.08 13.8763 207.591 12.4889 209.221 11.3414C211.675 9.61518 214.525 8.33325 218 8.33325Z" fill="#75A78F"/>
</svg>
