<svg width="78" height="90" viewBox="0 0 78 90" fill="none" xmlns="http://www.w3.org/2000/svg">
<path d="M56.377 67.3071L56.5396 67.4058L56.6781 67.2753C58.891 65.19 61.7781 63.8645 65 63.8645C71.8289 63.8645 77.4033 69.6613 77.4033 76.8072C77.4033 83.9532 71.8289 89.75 65 89.75C58.1711 89.75 52.5967 83.9532 52.5967 76.8072C52.5967 75.8347 52.7239 74.8595 52.9371 73.9261L52.9771 73.7506L52.8234 73.657L21.9701 54.8618L21.8052 54.7614L21.6664 54.8954C19.3683 57.114 16.3523 58.4849 13 58.4849C5.95447 58.4849 0.25 52.5526 0.25 45.1807C0.25 37.8089 5.95447 31.8765 13 31.8765C16.3523 31.8765 19.3683 33.2475 21.6664 35.466L21.8051 35.5999L21.9699 35.4998L52.5199 16.9305L52.6708 16.8388L52.6347 16.6658C52.4192 15.632 52.25 14.6127 52.25 13.5542C52.25 6.18235 57.9545 0.25 65 0.25C72.0455 0.25 77.75 6.18235 77.75 13.5542C77.75 20.9261 72.0455 26.8584 65 26.8584C61.6477 26.8584 58.6317 25.4875 56.3336 23.2689L56.1949 23.135L56.0302 23.2352L25.4801 41.8044L25.3292 41.8962L25.3653 42.0691C25.5808 43.103 25.75 44.1222 25.75 45.1807C25.75 46.2392 25.5808 47.2585 25.3653 48.2923L25.3292 48.4654L25.4803 48.5571L56.377 67.3071Z" fill="white" stroke="white" stroke-width="0.5"/>
</svg>
