<?xml version="1.0" encoding="UTF-8" standalone="no" ?>
<!DOCTYPE svg PUBLIC "-//W3C//DTD SVG 1.1//EN" "http://www.w3.org/Graphics/SVG/1.1/DTD/svg11.dtd">
<svg xmlns="http://www.w3.org/2000/svg" xmlns:xlink="http://www.w3.org/1999/xlink" version="1.1" width="500" height="500" viewBox="0 0 500 500" xml:space="preserve">
<desc>Created with Fabric.js 5.3.0</desc>
<defs>
</defs>
<g transform="matrix(1 0 0 1 251.2100265198 249.1516178204)" id="Js0OpQstZxJ6y8cuDEFOQ"  >
<path style="stroke: rgb(181,181,181); stroke-width: 4; stroke-dasharray: none; stroke-linecap: butt; stroke-dashoffset: 0; stroke-linejoin: miter; stroke-miterlimit: 4; fill: rgb(181,181,181); fill-rule: nonzero; opacity: 1;"  transform=" translate(-129.44968, -129.403775)" d="M 33.13079 0 C 44.08631 0 53.80535999999999 5.32641 59.83784 13.52917 L 129.20349 82.89482000000001 L 202.18642 9.911890000000014 L 202.26655 9.992020000000014 C 208.26934 3.949050000000014 216.58449 0.2058600000000137 225.76859 0.2058600000000137 C 244.05678 0.2058600000000137 258.89938 15.048450000000013 258.89938 33.33665000000001 C 258.89938 43.32717000000001 254.46998000000002 52.28944000000001 247.46917000000002 58.36548000000001 L 176.07165000000003 129.763 L 248.27690000000004 201.96825 L 248.25656000000004 201.98859000000002 C 254.53404000000003 207.94952 258.45000000000005 216.37395 258.45000000000005 225.70744000000002 C 258.45000000000005 243.76209000000003 243.79695000000004 258.41515000000004 225.74229000000005 258.41515000000004 C 216.40880000000004 258.41515000000004 207.98437000000007 254.49919000000003 202.02344000000005 248.22171000000003 L 201.79375000000005 248.45140000000004 L 129.58850000000004 176.24615000000003 L 58.958640000000045 246.87601 C 52.87972000000005 254.16602 43.730260000000044 258.80756 33.503300000000046 258.80756 C 15.215110000000045 258.80756 0.3725100000000481 243.96497000000002 0.3725100000000481 225.67677000000003 C 0.3725100000000481 215.88456000000002 4.627810000000048 207.08018000000004 11.388870000000049 201.01316000000003 L 11.237000000000048 200.86129000000003 L 82.72032000000006 129.37797 L 11.913080000000065 58.57073000000001 C 4.633680000000065 52.49177000000001 -0.000019999999935294 43.34912000000001 -0.000019999999935294 33.130780000000016 C -0.000019999999935294 14.842590000000015 14.842570000000064 -0.000009999999981857854 33.13077000000006 -0.000009999999981857854 z" stroke-linecap="round" />
</g>
</svg>