<svg width="50" height="50" viewBox="0 0 50 50" fill="none" xmlns="http://www.w3.org/2000/svg">
<path fill-rule="evenodd" clip-rule="evenodd" d="M5.76931 25.5376C6.65438 25.5376 7.37188 26.2597 7.37188 27.1505V34.9895C7.37188 36.375 8.4075 37.5101 9.75176 37.6242C13.8204 37.9697 20.2493 38.4408 25.0001 38.4408C29.7509 38.4408 36.1798 37.9697 40.2484 37.6242C41.5927 37.5101 42.6283 36.375 42.6283 34.9895V27.1505C42.6283 26.2597 43.3458 25.5376 44.2309 25.5376C45.1159 25.5376 45.8334 26.2597 45.8334 27.1505V34.9895C45.8334 38.0236 43.5493 40.5812 40.5179 40.8386C36.4459 41.1844 29.8985 41.6666 25.0001 41.6666C20.1017 41.6666 13.5543 41.1844 9.48231 40.8386C6.45088 40.5812 4.16675 38.0236 4.16675 34.9895V27.1505C4.16675 26.2597 4.88424 25.5376 5.76931 25.5376Z" fill="#75A78F"/>
<path fill-rule="evenodd" clip-rule="evenodd" d="M23.8669 28.2909C24.4927 28.9208 25.5074 28.9208 26.1333 28.2909L32.5435 21.8393C33.1694 21.2095 33.1694 20.1882 32.5435 19.5583C31.9177 18.9285 30.903 18.9285 30.2772 19.5583L26.6026 23.2566V9.94616C26.6026 9.05537 25.8852 8.33325 25.0001 8.33325C24.115 8.33325 23.3975 9.05537 23.3975 9.94616V23.2566L19.723 19.5583C19.0972 18.9285 18.0825 18.9285 17.4566 19.5583C16.8308 20.1882 16.8308 21.2095 17.4566 21.8393L23.8669 28.2909Z" fill="#75A78F"/>
</svg>
