<svg width="53" height="53" viewBox="0 0 53 53" fill="none" xmlns="http://www.w3.org/2000/svg">
<path fill-rule="evenodd" clip-rule="evenodd" d="M26.5248 11.8473C21.6038 11.8473 14.901 12.2689 10.6446 12.5789C9.2311 12.6819 8.13633 13.8003 8.13633 15.1662V16.7098L25.1717 25.6528C26.0132 26.0946 27.0364 26.0946 27.8779 25.6528L44.9133 16.7098V15.1662C44.9133 13.8003 43.8185 12.6819 42.405 12.5789C38.1486 12.2689 31.4458 11.8473 26.5248 11.8473ZM44.9133 20.3239L29.5016 28.4145C27.6503 29.3864 25.3993 29.3864 23.5481 28.4145L8.13633 20.3239V36.9617C8.13633 38.3277 9.2311 39.4461 10.6447 39.549C14.901 39.8591 21.6038 40.2807 26.5248 40.2807C31.4458 40.2807 38.1486 39.8591 42.405 39.549C43.8185 39.4461 44.9133 38.3277 44.9133 36.9617V20.3239ZM10.3877 9.42901C14.6466 9.11879 21.4628 8.68799 26.5248 8.68799C31.5869 8.68799 38.403 9.11879 42.6619 9.42901C45.8448 9.66085 48.2567 12.176 48.2567 15.1662V36.9617C48.2567 39.952 45.8448 42.4671 42.6619 42.699C38.403 43.0092 31.5869 43.44 26.5248 43.44C21.4628 43.44 14.6466 43.0092 10.3877 42.699C7.20482 42.4671 4.79297 39.952 4.79297 36.9617V15.1662C4.79297 12.176 7.20482 9.66085 10.3877 9.42901Z" fill="#75A78F"/>
</svg>
