<svg width="46" height="46" viewBox="0 0 46 46" fill="none" xmlns="http://www.w3.org/2000/svg">
    <path fill-rule="evenodd" clip-rule="evenodd" d="M24.3181 1.34879C25.1196 0.6474 26.338 0.728626 27.0394 1.53021L45.0394 22.1016C45.6756 22.8287 45.6756 23.9144 45.0394 24.6416L27.0394 45.213C26.338 46.0145 25.1196 46.0958 24.318 45.3944C23.5165 44.693 23.4352 43.4746 24.1366 42.673L31.7373 33.9866L39.3379 25.3002L2.44517 25.3002C1.38005 25.3002 0.516597 24.4367 0.516598 23.3716C0.516598 22.3065 1.38005 21.443 2.44517 21.443L39.3379 21.443L24.1366 4.07015C23.4352 3.26857 23.5165 2.05017 24.3181 1.34879Z" fill="#75A78F"/>
</svg>
